<svg class="fukidashi" width="100%" height="100%" viewBox="0 0 100% 100%" version="1.1" xmlns="http://www.w3.org/2000/svg" xmlns:xlink="http://www.w3.org/1999/xlink">
    <defs>
        <path d="M11,33.2158133 L11,49.0004689 C11,53.4094295 14.5847084,57 19.0066703,57 L92.9933297,57 C97.4163547,57 101,53.4184879 101,49.0004689 L101,17.9995311 C101,13.5905705 97.4152916,10 92.9933297,10 L19.0066703,10 C14.5836453,10 11,13.5815121 11,17.9995311 L11,24.2376493 C10.4150214,24.8516099 9.19271312,26.0594882 8.16714087,26.5800766 C7.58689684,26.8746129 6.9399724,26.9941187 6.27778289,27.0000998 C4.47627126,27.0163719 3.82171603,26.733031 1.56958057,25.7666747 C-0.430496211,24.9084728 8.88889663,31.6876208 11,33.2158133 Z" id="path-1"></path>
        s
    </defs>
    <text class="text" x="0" y="40" font-size="10" fill="white">
        文字の描画される基準ライン
    </text>
    <g id="Page-1" stroke="none" stroke-width="1" fill="none" fill-rule="evenodd">
        <use id="Combined-Shape" stroke="#fff" mask="url(#mask-2)" stroke-width="2" xlink:href="#path-1"></use>
    </g>
</svg>