<svg id="svg" version="1.1" width="700" height="700" xmlns="http://www.w3.org/2000/svg" xmlns:xlink="http://www.w3.org/1999/xlink" style="display: block;"><g id="svgg"><path id="path0" d="M309.429 36.409 C 310.952 36.778,313.132 38.834,313.188 39.957 C 313.221 40.612,313.316 40.650,313.537 40.097 C 313.963 39.030,310.888 35.986,309.465 36.066 C 308.316 36.131,308.315 36.140,309.429 36.409 M240.429 38.285 C 240.860 38.769,241.143 40.721,241.143 43.223 C 241.143 45.499,241.336 47.481,241.571 47.628 C 242.534 48.227,241.647 38.940,240.672 38.205 C 239.863 37.596,239.825 37.608,240.429 38.285 M302.418 46.286 C 302.418 47.386,302.536 47.836,302.680 47.286 C 302.823 46.736,302.823 45.836,302.680 45.286 C 302.536 44.736,302.418 45.186,302.418 46.286 M88.151 45.553 C 89.019 45.684,90.305 45.681,91.008 45.545 C 91.711 45.409,91.000 45.302,89.429 45.306 C 87.857 45.311,87.282 45.422,88.151 45.553 M128.151 45.553 C 129.019 45.684,130.305 45.681,131.008 45.545 C 131.711 45.409,131.000 45.302,129.429 45.306 C 127.857 45.311,127.282 45.422,128.151 45.553 M96.759 49.429 C 96.761 51.629,96.865 52.459,96.988 51.273 C 97.112 50.087,97.110 48.287,96.984 47.273 C 96.858 46.259,96.756 47.229,96.759 49.429 M307.561 48.000 C 307.561 49.100,307.679 49.550,307.822 49.000 C 307.966 48.450,307.966 47.550,307.822 47.000 C 307.679 46.450,307.561 46.900,307.561 48.000 M45.286 47.822 C 45.836 47.966,46.736 47.966,47.286 47.822 C 47.836 47.679,47.386 47.561,46.286 47.561 C 45.186 47.561,44.736 47.679,45.286 47.822 M148.714 47.822 C 149.264 47.966,150.164 47.966,150.714 47.822 C 151.264 47.679,150.814 47.561,149.714 47.561 C 148.614 47.561,148.164 47.679,148.714 47.822 M165.571 47.847 C 166.907 47.967,169.093 47.967,170.429 47.847 C 171.764 47.727,170.671 47.628,168.000 47.628 C 165.329 47.628,164.236 47.727,165.571 47.847 M285.857 47.822 C 286.407 47.966,287.307 47.966,287.857 47.822 C 288.407 47.679,287.957 47.561,286.857 47.561 C 285.757 47.561,285.307 47.679,285.857 47.822 M12.824 64.286 C 12.824 73.400,12.903 77.049,12.999 72.394 C 13.095 67.739,13.095 60.282,12.998 55.822 C 12.902 51.363,12.823 55.171,12.824 64.286 M45.286 50.108 C 45.836 50.252,46.736 50.252,47.286 50.108 C 47.836 49.964,47.386 49.847,46.286 49.847 C 45.186 49.847,44.736 49.964,45.286 50.108 M148.714 50.108 C 149.264 50.252,150.164 50.252,150.714 50.108 C 151.264 49.964,150.814 49.847,149.714 49.847 C 148.614 49.847,148.164 49.964,148.714 50.108 M165.357 50.553 C 165.180 51.014,165.168 51.721,165.330 52.124 C 165.492 52.527,165.644 52.293,165.669 51.604 C 165.707 50.555,166.108 50.316,168.143 50.133 L 170.571 49.914 168.125 49.814 C 166.432 49.745,165.579 49.972,165.357 50.553 M285.857 50.108 C 286.407 50.252,287.307 50.252,287.857 50.108 C 288.407 49.964,287.957 49.847,286.857 49.847 C 285.757 49.847,285.307 49.964,285.857 50.108 M126.506 57.143 C 126.506 61.071,126.597 62.679,126.709 60.714 C 126.820 58.750,126.820 55.536,126.709 53.571 C 126.597 51.607,126.506 53.214,126.506 57.143 M163.057 55.429 C 163.057 58.100,163.155 59.193,163.276 57.857 C 163.396 56.521,163.396 54.336,163.276 53.000 C 163.155 51.664,163.057 52.757,163.057 55.429 M300.183 54.286 C 300.183 56.329,300.287 57.164,300.413 56.143 C 300.540 55.121,300.540 53.450,300.413 52.429 C 300.287 51.407,300.183 52.243,300.183 54.286 M318.418 52.571 C 318.418 53.671,318.536 54.121,318.680 53.571 C 318.823 53.021,318.823 52.121,318.680 51.571 C 318.536 51.021,318.418 51.471,318.418 52.571 M323.637 56.286 C 323.639 59.429,323.735 60.641,323.851 58.981 C 323.966 57.320,323.965 54.749,323.848 53.267 C 323.731 51.784,323.636 53.143,323.637 56.286 M326.441 55.429 C 326.441 56.843,326.553 57.421,326.689 56.714 C 326.825 56.007,326.825 54.850,326.689 54.143 C 326.553 53.436,326.441 54.014,326.441 55.429 M312.171 57.143 C 312.171 58.871,312.278 59.579,312.409 58.714 C 312.540 57.850,312.540 56.436,312.409 55.571 C 312.278 54.707,312.171 55.414,312.171 57.143 M20.240 56.771 C 20.077 57.195,20.024 59.316,20.122 61.485 L 20.299 65.429 20.578 60.713 C 20.857 56.005,20.798 55.317,20.240 56.771 M139.584 60.571 C 139.584 61.986,139.696 62.564,139.832 61.857 C 139.968 61.150,139.968 59.993,139.832 59.286 C 139.696 58.579,139.584 59.157,139.584 60.571 M38.418 60.571 C 38.418 61.671,38.536 62.121,38.680 61.571 C 38.823 61.021,38.823 60.121,38.680 59.571 C 38.536 59.021,38.418 59.471,38.418 60.571 M147.001 60.857 C 147.008 62.114,147.125 62.561,147.261 61.850 C 147.398 61.140,147.393 60.111,147.250 59.565 C 147.107 59.018,146.995 59.600,147.001 60.857 M287.561 60.571 C 287.561 61.671,287.679 62.121,287.822 61.571 C 287.966 61.021,287.966 60.121,287.822 59.571 C 287.679 59.021,287.561 59.471,287.561 60.571 M292.704 60.571 C 292.704 61.671,292.822 62.121,292.965 61.571 C 293.109 61.021,293.109 60.121,292.965 59.571 C 292.822 59.021,292.704 59.471,292.704 60.571 M307.561 61.143 C 307.561 62.243,307.679 62.693,307.822 62.143 C 307.966 61.593,307.966 60.693,307.822 60.143 C 307.679 59.593,307.561 60.043,307.561 61.143 M318.418 62.286 C 318.418 63.386,318.536 63.836,318.680 63.286 C 318.823 62.736,318.823 61.836,318.680 61.286 C 318.536 60.736,318.418 61.186,318.418 62.286 M131.584 63.429 C 131.584 64.843,131.696 65.421,131.832 64.714 C 131.968 64.007,131.968 62.850,131.832 62.143 C 131.696 61.436,131.584 62.014,131.584 63.429 M349.714 62.538 C 349.714 63.305,349.925 64.063,350.182 64.222 C 350.440 64.381,350.539 63.753,350.403 62.827 C 350.103 60.785,349.714 60.621,349.714 62.538 M84.716 66.000 C 84.722 67.257,84.839 67.704,84.976 66.993 C 85.112 66.283,85.107 65.254,84.964 64.708 C 84.821 64.161,84.709 64.743,84.716 66.000 M86.990 69.143 C 86.990 70.243,87.107 70.693,87.251 70.143 C 87.395 69.593,87.395 68.693,87.251 68.143 C 87.107 67.593,86.990 68.043,86.990 69.143 M96.704 69.714 C 96.704 70.814,96.822 71.264,96.965 70.714 C 97.109 70.164,97.109 69.264,96.965 68.714 C 96.822 68.164,96.704 68.614,96.704 69.714 M368.548 72.143 C 369.949 73.636,371.170 74.857,371.262 74.857 C 371.691 74.857,371.237 74.344,368.714 71.976 L 366.000 69.429 368.548 72.143 M20.192 74.286 C 20.192 76.643,20.293 77.607,20.416 76.429 C 20.540 75.250,20.540 73.321,20.416 72.143 C 20.293 70.964,20.192 71.929,20.192 74.286 M120.250 72.143 L 118.571 74.000 120.429 72.322 C 121.450 71.399,122.286 70.563,122.286 70.465 C 122.286 70.023,121.814 70.412,120.250 72.143 M108.000 73.429 C 109.066 74.529,110.067 75.429,110.224 75.429 C 110.381 75.429,109.638 74.529,108.571 73.429 C 107.505 72.329,106.504 71.429,106.347 71.429 C 106.190 71.429,106.934 72.329,108.000 73.429 M191.286 95.276 C 192.621 95.396,194.807 95.396,196.143 95.276 C 197.479 95.155,196.386 95.057,193.714 95.057 C 191.043 95.057,189.950 95.155,191.286 95.276 M171.000 95.822 C 171.550 95.966,172.450 95.966,173.000 95.822 C 173.550 95.679,173.100 95.561,172.000 95.561 C 170.900 95.561,170.450 95.679,171.000 95.822 M175.286 103.832 C 175.993 103.968,177.150 103.968,177.857 103.832 C 178.564 103.696,177.986 103.584,176.571 103.584 C 175.157 103.584,174.579 103.696,175.286 103.832 M207.000 103.822 C 207.550 103.966,208.450 103.966,209.000 103.822 C 209.550 103.679,209.100 103.561,208.000 103.561 C 206.900 103.561,206.450 103.679,207.000 103.822 M103.687 127.571 L 101.429 130.000 103.857 127.741 C 105.193 126.499,106.286 125.406,106.286 125.313 C 106.286 124.880,105.788 125.313,103.687 127.571 M91.034 156.857 C 91.037 158.743,91.144 159.445,91.271 158.418 C 91.398 157.391,91.396 155.848,91.265 154.990 C 91.135 154.131,91.031 154.971,91.034 156.857 M61.906 202.286 C 61.906 204.643,62.007 205.607,62.131 204.429 C 62.254 203.250,62.254 201.321,62.131 200.143 C 62.007 198.964,61.906 199.929,61.906 202.286 M54.473 202.571 C 54.476 204.771,54.579 205.601,54.703 204.416 C 54.826 203.230,54.824 201.430,54.698 200.416 C 54.572 199.401,54.471 200.371,54.473 202.571 M84.785 207.143 C 84.786 210.600,84.881 211.941,84.994 210.122 C 85.108 208.303,85.107 205.475,84.992 203.836 C 84.877 202.198,84.784 203.686,84.785 207.143 M77.349 207.429 C 77.349 210.414,77.445 211.636,77.563 210.143 C 77.681 208.650,77.681 206.207,77.563 204.714 C 77.445 203.221,77.349 204.443,77.349 207.429 M157.000 206.699 C 158.021 206.826,159.693 206.826,160.714 206.699 C 161.736 206.572,160.900 206.469,158.857 206.469 C 156.814 206.469,155.979 206.572,157.000 206.699 M195.867 230.700 C 196.894 230.827,198.437 230.824,199.296 230.694 C 200.155 230.564,199.314 230.460,197.429 230.463 C 195.543 230.466,194.840 230.573,195.867 230.700 M172.429 231.271 C 173.450 231.397,175.121 231.397,176.143 231.271 C 177.164 231.144,176.329 231.040,174.286 231.040 C 172.243 231.040,171.407 231.144,172.429 231.271 M149.010 231.843 C 150.037 231.970,151.580 231.967,152.439 231.837 C 153.297 231.706,152.457 231.602,150.571 231.606 C 148.686 231.609,147.983 231.716,149.010 231.843 M125.010 232.414 C 126.037 232.541,127.580 232.539,128.439 232.408 C 129.297 232.278,128.457 232.174,126.571 232.177 C 124.686 232.180,123.983 232.287,125.010 232.414 M203.286 238.699 C 204.307 238.826,205.979 238.826,207.000 238.699 C 208.021 238.572,207.186 238.469,205.143 238.469 C 203.100 238.469,202.264 238.572,203.286 238.699 M178.857 239.181 C 180.777 239.610,185.016 239.685,184.769 239.286 C 184.623 239.050,183.041 238.887,181.252 238.923 C 179.463 238.960,178.386 239.076,178.857 239.181 M156.439 239.843 C 157.466 239.970,159.009 239.967,159.867 239.837 C 160.726 239.706,159.886 239.602,158.000 239.606 C 156.114 239.609,155.412 239.716,156.439 239.843 M88.000 241.893 C 88.000 241.991,88.836 242.827,89.857 243.750 L 91.714 245.429 90.036 243.571 C 88.472 241.840,88.000 241.452,88.000 241.893 M72.571 266.571 C 73.638 267.671,74.638 268.571,74.796 268.571 C 74.953 268.571,74.209 267.671,73.143 266.571 C 72.077 265.471,71.076 264.571,70.919 264.571 C 70.762 264.571,71.505 265.471,72.571 266.571 M141.857 309.552 C 142.721 309.683,144.136 309.683,145.000 309.552 C 145.864 309.421,145.157 309.314,143.429 309.314 C 141.700 309.314,140.993 309.421,141.857 309.552 M161.732 350.286 C 161.732 351.071,161.981 352.100,162.286 352.571 C 162.724 353.250,162.840 353.131,162.840 352.000 C 162.840 351.214,162.590 350.186,162.286 349.714 C 161.847 349.036,161.732 349.155,161.732 350.286 M164.439 358.700 C 165.466 358.827,167.009 358.824,167.867 358.694 C 168.726 358.564,167.886 358.460,166.000 358.463 C 164.114 358.466,163.412 358.573,164.439 358.700 M170.429 366.680 C 170.979 366.823,171.879 366.823,172.429 366.680 C 172.979 366.536,172.529 366.418,171.429 366.418 C 170.329 366.418,169.879 366.536,170.429 366.680 M156.435 367.261 C 157.146 367.398,158.175 367.393,158.721 367.250 C 159.267 367.107,158.686 366.995,157.429 367.001 C 156.171 367.008,155.724 367.125,156.435 367.261 " stroke="none" fill="#b3a3a4" fill-rule="evenodd"></path><path id="path1" d="M0.000 200.000 L 0.000 400.000 200.000 400.000 L 400.000 400.000 400.000 200.000 L 400.000 0.000 200.000 0.000 L 0.000 0.000 0.000 200.000 M240.112 37.535 C 241.555 38.918,241.714 39.451,241.714 42.895 L 241.714 46.719 245.339 50.416 C 249.526 54.687,250.293 56.770,250.273 63.824 C 250.247 73.210,247.434 76.000,237.998 76.000 C 228.489 76.000,229.143 77.588,229.143 54.494 L 229.143 36.000 233.826 36.000 C 238.129 36.000,238.639 36.124,240.112 37.535 M312.144 37.571 C 313.627 39.125,313.637 39.196,313.053 43.714 C 312.452 48.360,312.769 71.446,313.475 74.429 L 313.848 76.000 309.031 76.000 C 301.655 76.000,301.369 75.573,300.619 63.428 C 300.241 57.302,300.225 50.998,300.574 45.429 C 300.870 40.714,301.119 36.664,301.127 36.429 C 301.178 35.044,310.671 36.029,312.144 37.571 M96.570 38.286 C 97.443 39.565,97.492 40.638,97.037 48.571 C 96.758 53.443,96.685 61.607,96.876 66.714 L 97.222 76.000 92.425 76.000 C 84.531 76.000,83.937 73.839,84.846 48.408 L 85.270 36.530 90.432 36.694 C 95.209 36.845,95.668 36.964,96.570 38.286 M135.724 37.726 C 136.689 38.791,136.772 40.300,136.813 57.439 L 136.857 75.999 132.115 76.000 C 127.659 76.000,127.291 75.906,125.991 74.429 L 124.608 72.857 124.596 56.857 C 124.589 48.057,124.743 39.893,124.938 38.714 L 125.292 36.571 129.986 36.571 C 133.970 36.571,134.838 36.746,135.724 37.726 M231.429 54.571 L 231.429 70.857 234.000 70.857 C 235.858 70.857,236.571 70.629,236.571 70.034 C 236.571 69.334,236.790 69.324,238.037 69.971 C 242.536 72.305,246.477 65.055,245.148 56.888 C 244.163 50.838,240.640 47.924,237.616 50.660 C 236.610 51.571,236.571 51.362,236.571 44.946 L 236.571 38.286 234.000 38.286 L 231.429 38.286 231.429 54.571 M303.047 39.857 C 302.493 42.015,302.495 64.791,303.049 68.143 L 303.499 70.857 306.046 70.857 C 308.550 70.857,308.586 70.831,308.154 69.286 C 307.912 68.421,307.727 61.093,307.743 53.000 L 307.772 38.286 305.611 38.286 C 303.733 38.286,303.398 38.491,303.047 39.857 M87.429 40.214 C 87.429 40.961,87.268 42.375,87.071 43.357 L 86.714 45.143 89.357 45.143 L 92.000 45.143 92.000 42.904 C 92.000 41.672,92.156 40.258,92.347 39.761 C 92.632 39.017,92.227 38.857,90.061 38.857 C 87.671 38.857,87.429 38.982,87.429 40.214 M127.238 39.238 C 127.029 39.448,126.857 40.862,126.857 42.381 L 126.857 45.143 129.429 45.143 L 132.000 45.143 132.000 42.000 L 132.000 38.857 129.810 38.857 C 128.605 38.857,127.448 39.029,127.238 39.238 M116.586 40.873 C 117.864 42.233,117.902 42.470,117.235 44.965 C 116.545 47.544,116.570 47.660,118.211 49.378 C 120.411 51.684,120.220 62.773,117.994 61.919 C 116.690 61.418,116.932 61.990,119.714 65.970 C 123.005 70.678,122.792 71.410,117.143 74.797 C 111.549 78.150,104.827 73.145,103.347 64.524 C 103.001 62.507,102.391 60.471,101.992 60.000 C 101.593 59.529,101.099 57.729,100.895 56.000 C 100.691 54.271,100.387 51.917,100.221 50.769 C 99.937 48.810,100.027 48.656,101.674 48.295 C 102.916 48.022,103.513 47.504,103.715 46.526 C 105.262 39.023,104.876 39.429,110.458 39.429 C 114.822 39.429,115.345 39.552,116.586 40.873 M356.189 41.042 C 357.708 42.627,357.720 42.698,356.878 45.084 C 356.027 47.497,356.032 47.525,357.734 49.328 C 359.431 51.125,359.444 51.189,359.107 56.000 C 358.688 61.991,358.577 62.362,357.356 61.893 C 356.231 61.462,356.280 61.562,359.528 66.397 C 362.335 70.576,361.664 72.312,356.171 75.079 C 350.686 77.842,342.915 71.330,342.870 63.934 C 342.863 62.797,342.376 61.256,341.786 60.506 C 341.076 59.602,340.581 57.700,340.317 54.857 C 340.097 52.500,339.795 50.135,339.645 49.603 C 339.437 48.865,339.855 48.543,341.400 48.253 C 343.138 47.927,343.429 47.648,343.429 46.307 C 343.429 45.446,343.708 43.868,344.050 42.800 C 344.392 41.731,344.770 40.536,344.890 40.143 C 345.386 38.511,354.456 39.233,356.189 41.042 M107.211 42.175 C 107.054 42.429,106.609 44.357,106.221 46.461 C 105.591 49.882,105.376 50.286,104.187 50.286 C 102.953 50.286,102.857 50.516,102.857 53.495 C 102.857 56.344,102.977 56.673,103.921 56.426 C 104.877 56.176,105.023 56.639,105.356 60.972 C 106.078 70.358,109.423 72.893,115.108 68.360 L 116.773 67.033 115.483 64.945 C 114.014 62.568,113.950 62.540,112.750 63.740 C 111.181 65.309,110.578 64.357,110.402 60.032 L 110.233 55.869 112.259 56.105 C 113.808 56.286,114.287 56.133,114.292 55.457 C 114.295 54.970,114.452 53.641,114.640 52.504 C 114.973 50.495,114.924 50.425,112.920 50.049 C 111.785 49.837,110.863 49.481,110.871 49.260 C 110.889 48.734,111.955 44.002,112.345 42.714 C 112.667 41.651,107.848 41.145,107.211 42.175 M346.362 43.857 C 346.065 45.036,345.661 46.948,345.464 48.106 C 345.191 49.708,344.802 50.254,343.838 50.391 C 341.883 50.669,341.701 56.571,343.648 56.571 C 344.193 56.571,344.584 58.066,344.990 61.699 C 345.899 69.838,348.283 72.140,352.963 69.397 C 356.131 67.540,356.428 66.778,354.848 64.559 C 353.658 62.887,353.534 62.844,352.531 63.751 C 350.557 65.538,349.714 64.431,349.714 60.052 L 349.714 56.069 351.857 55.892 C 355.158 55.618,355.543 50.649,352.310 50.042 C 350.094 49.627,350.128 49.849,351.481 44.571 C 352.220 41.688,352.239 41.714,349.451 41.714 C 346.981 41.714,346.884 41.782,346.362 43.857 M194.857 48.369 C 200.625 50.411,202.640 52.316,201.802 54.934 C 200.536 58.885,200.348 62.806,201.369 63.934 C 202.121 64.765,202.196 65.304,201.731 66.527 C 201.408 67.376,200.978 69.855,200.776 72.035 C 200.573 74.216,200.265 76.000,200.090 76.000 C 199.916 76.000,197.653 75.353,195.062 74.563 C 188.195 72.468,186.784 69.680,188.603 61.794 C 189.021 59.981,188.994 59.081,188.507 58.494 C 187.301 57.040,188.719 46.863,190.129 46.854 C 190.372 46.853,192.500 47.534,194.857 48.369 M217.487 47.780 C 221.977 49.911,224.251 53.845,224.583 60.058 C 224.815 64.385,225.117 65.881,225.941 66.792 C 227.091 68.063,227.541 67.332,220.475 75.672 C 220.211 75.984,219.611 75.826,219.014 75.285 C 218.167 74.519,217.612 74.471,215.643 74.997 C 208.087 77.014,201.257 64.966,206.180 58.306 C 207.296 56.797,207.296 56.788,205.945 53.468 C 204.408 49.690,204.446 49.539,207.323 48.020 C 209.947 46.634,214.828 46.519,217.487 47.780 M26.240 48.262 C 37.111 53.884,37.491 76.555,26.714 76.569 C 25.175 76.571,25.143 76.641,25.143 80.000 L 25.143 83.429 20.039 83.429 C 12.290 83.429,12.571 84.157,12.571 64.079 L 12.571 48.048 17.000 47.853 C 19.436 47.746,22.148 47.607,23.028 47.544 C 23.908 47.480,25.353 47.804,26.240 48.262 M49.422 48.068 C 51.904 48.757,55.670 52.261,55.212 53.455 C 55.057 53.859,55.455 55.561,56.095 57.237 C 57.612 61.204,57.353 67.705,55.539 71.232 C 50.095 81.814,36.857 74.260,36.857 60.571 C 36.857 50.754,41.708 45.926,49.422 48.068 M74.086 48.613 C 75.432 49.265,77.826 51.213,79.407 52.942 L 82.281 56.087 80.569 58.575 C 78.512 61.565,78.533 61.185,80.286 63.769 C 87.477 74.365,69.295 81.020,61.041 70.813 L 59.388 68.768 61.051 65.063 C 62.504 61.823,62.614 61.223,61.928 60.284 C 60.719 58.630,60.928 53.340,62.289 51.137 C 64.539 47.497,69.561 46.422,74.086 48.613 M152.597 47.998 C 155.013 48.669,158.434 52.003,158.248 53.505 C 158.175 54.091,158.584 55.600,159.158 56.857 C 163.844 67.127,155.269 80.346,147.390 74.996 C 134.523 66.261,138.785 44.161,152.597 47.998 M174.736 47.942 C 177.944 48.399,182.448 51.966,184.331 55.543 C 185.327 57.436,185.354 67.899,184.373 72.571 L 183.714 75.714 175.507 75.873 C 166.542 76.047,166.101 75.919,164.783 72.767 C 163.750 70.296,162.630 55.738,163.120 51.160 L 163.520 47.429 167.617 47.470 C 169.870 47.493,173.074 47.706,174.736 47.942 M266.571 48.519 C 267.829 49.105,270.248 51.012,271.947 52.758 L 275.037 55.932 273.278 58.635 L 271.520 61.338 272.903 63.373 C 280.437 74.461,262.403 81.055,253.496 70.470 L 252.051 68.753 253.734 65.194 C 255.351 61.776,255.381 61.566,254.503 59.867 C 250.639 52.396,258.675 44.839,266.571 48.519 M290.532 48.279 C 293.097 49.193,295.559 51.998,295.738 54.210 C 295.805 55.037,296.303 56.871,296.844 58.286 C 301.339 70.030,291.034 80.996,282.749 73.286 C 271.701 63.005,277.707 43.710,290.532 48.279 M335.742 48.980 C 336.635 50.343,336.764 52.074,336.808 63.265 L 336.857 76.000 330.556 76.000 C 323.650 76.000,323.008 75.769,319.738 72.108 C 316.826 68.848,316.625 67.897,316.597 57.286 L 316.571 47.429 325.649 47.429 L 334.726 47.429 335.742 48.980 M378.171 48.798 C 379.653 49.564,382.956 53.207,384.408 55.677 C 385.661 57.807,385.308 62.455,383.714 64.803 C 381.962 67.385,381.942 67.009,383.987 69.981 C 385.914 72.782,385.840 72.937,381.681 74.823 C 372.851 78.829,363.866 71.679,363.757 60.558 C 363.663 51.034,370.969 45.073,378.171 48.798 M209.164 49.777 C 207.239 50.546,207.268 50.433,208.316 53.053 L 209.252 55.392 211.846 55.036 C 215.128 54.586,214.974 55.484,211.462 57.276 C 208.006 59.040,206.558 61.157,206.627 64.341 C 206.729 69.051,210.946 71.321,214.459 68.558 C 215.851 67.463,215.960 67.455,216.541 68.415 C 217.446 69.913,221.392 65.534,220.552 63.964 C 220.249 63.397,220.000 61.090,220.000 58.838 C 220.000 50.963,215.539 47.232,209.164 49.777 M66.469 50.636 C 61.503 53.085,62.104 58.742,67.678 62.009 C 71.804 64.427,70.322 66.496,66.058 64.272 C 65.147 63.797,64.368 63.477,64.327 63.561 C 62.276 67.759,62.188 68.185,63.248 68.813 C 74.000 75.188,81.947 65.035,71.468 58.311 C 68.022 56.100,68.208 54.427,71.673 56.471 L 73.704 57.669 75.119 55.586 C 76.784 53.136,76.443 52.410,72.857 50.779 C 70.059 49.506,68.816 49.479,66.469 50.636 M190.568 52.596 C 190.108 55.942,190.293 56.236,193.396 57.074 C 196.073 57.798,195.762 58.079,196.216 54.521 L 196.586 51.614 194.436 50.913 C 193.253 50.527,191.990 50.087,191.629 49.934 C 191.209 49.757,190.826 50.719,190.568 52.596 M259.036 50.829 C 256.868 52.151,256.000 53.605,256.000 55.916 C 256.000 58.617,256.503 59.339,260.072 61.763 C 264.613 64.847,263.647 66.763,258.811 64.262 L 257.108 63.381 255.997 65.833 L 254.886 68.286 257.586 69.564 C 267.455 74.237,273.704 64.878,264.735 58.857 C 263.096 57.757,261.746 56.536,261.735 56.143 C 261.705 55.095,262.742 55.269,264.659 56.634 C 265.590 57.297,266.420 57.747,266.504 57.634 C 269.705 53.316,269.605 52.679,265.429 50.779 C 262.504 49.449,261.284 49.458,259.036 50.829 M318.620 54.143 C 317.654 66.135,320.292 72.506,325.207 70.054 C 326.630 69.344,326.857 69.343,326.857 70.044 C 326.857 70.627,327.585 70.857,329.429 70.857 L 332.000 70.857 332.000 60.286 L 332.000 49.714 329.516 49.714 L 327.032 49.714 326.516 57.286 C 325.718 69.000,323.129 67.014,323.536 55.000 L 323.714 49.713 321.345 49.714 L 318.976 49.714 318.620 54.143 M14.857 64.286 L 14.857 78.286 17.429 78.286 L 20.000 78.286 20.000 74.279 L 20.000 70.272 22.277 70.636 C 25.267 71.114,27.174 69.864,28.694 66.428 C 30.780 61.712,29.080 51.832,25.978 50.642 C 24.447 50.055,21.993 50.238,21.186 51.000 C 20.580 51.571,20.376 51.571,20.167 51.000 C 20.011 50.576,18.879 50.286,17.381 50.286 L 14.857 50.286 14.857 64.286 M41.943 51.720 C 36.771 56.891,38.294 69.119,44.297 70.625 C 50.688 72.229,55.011 59.983,50.302 53.614 C 49.614 52.683,49.192 51.554,49.365 51.104 C 49.981 49.498,43.637 50.025,41.943 51.720 M86.857 57.920 C 86.857 69.841,87.088 70.857,89.792 70.857 L 92.000 70.857 92.000 60.571 L 92.000 50.286 89.429 50.286 L 86.857 50.286 86.857 57.920 M126.857 60.571 L 126.857 70.857 129.511 70.857 L 132.165 70.857 131.801 67.000 C 131.601 64.879,131.435 60.250,131.433 56.714 L 131.429 50.286 129.143 50.286 L 126.857 50.286 126.857 60.571 M144.869 52.159 C 142.278 54.751,141.249 59.304,142.247 63.763 C 144.740 74.904,155.456 71.841,155.413 60.000 C 155.403 57.241,153.610 52.571,152.561 52.571 C 152.183 52.571,152.071 52.106,152.286 51.429 C 152.978 49.249,147.212 49.817,144.869 52.159 M165.393 52.895 C 165.029 55.323,165.276 60.702,166.080 67.857 L 166.417 70.857 168.821 70.857 L 171.224 70.857 170.796 67.857 C 169.630 59.670,170.433 55.702,173.175 56.089 L 174.571 56.286 174.509 63.600 L 174.447 70.915 176.782 70.743 C 179.573 70.538,179.958 69.293,180.164 59.816 L 180.286 54.204 178.151 52.245 C 175.789 50.076,173.625 49.726,171.556 51.175 C 170.406 51.980,170.286 51.980,170.286 51.175 C 170.286 48.579,165.804 50.154,165.393 52.895 M282.977 51.181 C 276.573 55.666,278.998 70.870,286.114 70.855 C 291.599 70.844,294.939 59.114,290.983 53.762 C 290.285 52.818,289.714 51.650,289.714 51.166 C 289.714 49.953,284.715 49.963,282.977 51.181 M369.836 51.508 C 363.349 55.662,364.906 68.770,372.101 70.576 C 373.556 70.941,377.284 70.176,378.797 69.201 C 380.682 67.986,377.455 64.677,374.689 64.988 C 372.958 65.183,372.035 65.017,371.540 64.420 C 370.941 63.698,371.260 63.535,373.732 63.298 C 378.915 62.800,381.480 58.866,379.632 54.248 C 378.080 50.368,373.580 49.110,369.836 51.508 M375.429 56.891 C 375.429 57.454,374.785 57.714,373.395 57.714 C 371.208 57.714,371.182 56.845,373.344 56.027 C 374.784 55.482,375.429 55.749,375.429 56.891 M24.271 57.686 C 26.136 61.292,24.158 66.386,21.252 65.463 C 19.999 65.066,19.273 57.489,20.381 56.381 C 21.375 55.387,23.440 56.079,24.271 57.686 M239.293 56.714 C 241.201 59.083,240.481 64.286,238.245 64.286 C 236.987 64.286,236.840 64.021,236.679 61.466 C 236.380 56.753,237.575 54.582,239.293 56.714 M46.837 57.677 C 48.136 60.103,47.212 65.143,45.470 65.143 C 44.439 65.143,44.000 63.863,44.000 60.857 C 44.000 56.729,45.456 55.096,46.837 57.677 M150.225 58.614 C 150.535 59.737,150.697 60.959,150.585 61.328 C 150.473 61.698,150.226 62.707,150.037 63.571 C 149.354 66.690,146.857 64.559,146.857 60.857 C 146.857 56.777,149.273 55.168,150.225 58.614 M287.638 58.731 C 288.621 62.161,286.089 67.290,284.918 64.239 C 284.465 63.058,284.472 58.638,284.929 57.447 C 285.500 55.960,287.054 56.697,287.638 58.731 M214.518 61.857 C 213.797 63.125,212.408 64.571,211.911 64.571 C 211.117 64.571,211.363 63.305,212.374 62.188 C 213.446 61.004,215.154 60.740,214.518 61.857 M190.644 63.006 C 189.638 66.762,190.159 68.353,192.642 69.096 C 195.441 69.935,195.746 69.683,196.198 66.161 L 196.545 63.465 194.129 62.818 C 192.801 62.461,191.551 62.070,191.351 61.949 C 191.151 61.827,190.833 62.303,190.644 63.006 M215.602 96.047 C 228.034 97.180,237.098 100.078,238.377 103.330 C 239.352 105.808,238.534 126.236,236.886 140.571 C 234.336 162.741,223.122 237.081,222.189 237.998 C 222.085 238.100,215.250 238.372,207.000 238.602 L 192.000 239.019 192.000 241.115 C 192.000 242.268,193.524 249.881,195.386 258.034 C 197.248 266.187,199.471 276.133,200.327 280.136 C 201.830 287.167,201.949 287.454,203.827 288.562 C 210.153 292.295,207.025 304.500,198.286 310.179 C 191.929 314.311,188.282 312.365,185.158 303.174 L 184.178 300.289 183.177 304.859 C 181.928 310.564,180.431 314.071,179.057 314.510 C 175.951 315.502,174.871 318.315,173.237 329.668 L 171.684 340.455 173.864 340.748 C 178.852 341.417,181.102 347.128,181.132 359.197 C 181.149 366.170,181.194 366.147,165.455 366.897 C 154.609 367.414,153.926 367.515,151.820 368.909 C 142.374 375.160,135.603 371.634,134.972 360.135 C 134.544 352.333,137.770 345.714,142.000 345.714 C 143.860 345.714,143.955 346.332,140.000 332.716 C 136.175 319.548,136.268 320.000,137.375 320.000 C 137.897 320.000,138.074 319.600,137.880 318.857 C 137.690 318.131,137.100 317.714,136.264 317.714 C 135.242 317.714,134.859 317.300,134.551 315.857 C 134.332 314.836,132.027 305.129,129.428 294.286 C 126.828 283.443,124.395 273.243,124.020 271.620 L 123.338 268.669 116.955 272.021 C 99.556 281.158,90.933 280.779,77.015 270.263 C 55.308 253.862,47.908 204.036,61.470 165.596 C 62.219 163.475,62.168 163.187,60.414 159.542 C 56.157 150.699,58.577 137.143,64.413 137.143 C 65.129 137.143,65.714 136.934,65.714 136.679 C 65.714 136.081,67.719 133.928,68.881 133.278 C 69.471 132.948,69.980 131.332,70.363 128.570 C 71.624 119.469,78.401 110.349,83.352 111.090 C 85.235 111.372,85.268 111.341,84.926 109.631 C 84.734 108.670,84.733 106.906,84.924 105.712 L 85.271 103.541 89.635 102.917 C 130.725 97.036,190.611 93.770,215.602 96.047 M175.714 103.768 C 173.829 103.879,167.400 104.244,161.429 104.579 C 150.701 105.180,126.141 107.130,121.127 107.779 L 118.540 108.113 118.762 112.032 C 119.293 121.423,113.697 130.822,102.703 139.008 C 100.078 140.963,98.921 142.181,99.103 142.801 C 99.250 143.303,101.206 152.457,103.449 163.143 C 108.817 188.718,118.210 232.121,118.412 232.290 C 118.588 232.438,215.633 230.173,215.850 230.016 C 216.060 229.865,221.421 196.752,223.671 181.714 C 228.248 151.115,230.700 129.994,231.241 116.514 L 231.599 107.600 227.085 106.394 C 218.911 104.210,191.760 102.822,175.714 103.768 M99.714 110.034 C 96.571 110.452,93.717 110.808,93.372 110.826 C 92.962 110.846,93.400 114.253,94.634 120.642 C 97.391 134.922,96.564 134.062,102.339 128.659 C 109.159 122.278,112.027 116.660,111.141 111.416 L 110.757 109.143 108.093 109.209 C 106.627 109.245,102.857 109.617,99.714 110.034 M85.986 130.121 C 83.872 136.393,83.870 136.341,86.286 137.625 C 91.866 140.590,93.553 160.601,88.708 166.359 C 85.950 169.636,83.767 212.684,85.932 221.079 C 88.867 232.455,96.338 240.923,106.200 244.052 C 114.032 246.538,124.933 245.310,126.850 241.727 L 127.512 240.490 119.920 240.624 L 112.328 240.757 110.464 232.236 C 106.758 215.297,94.202 156.498,90.978 140.978 L 87.678 125.099 85.986 130.121 M72.000 143.340 C 72.000 146.240,70.497 147.645,67.740 147.323 L 65.714 147.087 65.720 149.686 C 65.741 159.517,75.767 167.477,81.410 162.143 C 83.597 160.075,83.645 159.824,83.515 151.062 L 83.429 145.267 81.131 144.348 C 79.868 143.842,78.365 143.429,77.791 143.429 C 77.218 143.429,76.283 142.914,75.714 142.286 C 73.862 140.239,72.000 140.768,72.000 143.340 M201.934 142.908 C 206.174 146.243,206.222 150.748,202.000 149.143 C 200.984 148.756,200.137 148.764,199.386 149.165 C 198.776 149.492,195.771 149.884,192.710 150.036 C 189.648 150.188,186.714 150.445,186.191 150.608 C 184.916 151.004,184.755 150.630,184.281 146.181 L 183.875 142.362 186.080 142.134 C 193.436 141.374,200.418 141.715,201.934 142.908 M144.398 144.571 L 146.417 144.571 146.032 147.857 C 145.428 153.004,145.523 152.882,142.285 152.659 C 138.596 152.404,131.582 153.960,126.910 156.070 C 124.896 156.980,123.202 157.658,123.146 157.576 C 122.247 156.275,119.360 150.741,119.510 150.606 C 122.600 147.836,138.206 143.429,141.618 144.363 C 142.037 144.478,143.288 144.571,144.398 144.571 M193.963 155.986 C 195.726 156.656,195.861 158.204,194.320 160.080 C 193.272 161.356,193.126 161.382,191.606 160.552 C 187.995 158.582,190.094 154.515,193.963 155.986 M137.959 160.327 C 139.079 161.446,139.105 162.877,138.032 164.319 C 136.970 165.748,134.109 164.432,133.813 162.378 C 133.442 159.798,136.110 158.478,137.959 160.327 M160.133 164.666 C 163.292 165.818,163.501 166.005,163.173 167.380 C 161.586 174.017,162.753 183.356,165.088 182.717 C 165.380 182.637,166.659 184.048,167.932 185.853 L 170.245 189.135 168.579 189.996 C 161.787 193.508,155.368 187.453,154.954 177.144 C 154.748 172.025,155.668 163.429,156.422 163.429 C 156.597 163.429,158.267 163.985,160.133 164.666 M66.858 174.409 C 62.213 191.625,61.577 198.828,63.112 216.857 C 65.628 246.406,72.347 259.877,88.415 267.588 C 98.087 272.229,107.136 269.848,124.655 258.050 C 126.315 256.932,127.830 256.206,128.022 256.437 C 128.213 256.668,131.179 268.657,134.613 283.080 L 140.857 309.303 154.000 308.953 C 165.910 308.635,173.943 307.962,174.686 307.219 C 176.463 305.442,184.571 252.476,184.571 242.644 L 184.571 239.287 161.286 239.683 C 135.806 240.117,136.229 240.080,135.668 241.886 C 129.877 260.529,95.975 256.652,83.846 235.960 C 77.037 224.343,75.987 212.266,78.772 177.571 L 79.173 172.571 76.872 172.558 C 75.607 172.550,73.111 171.944,71.327 171.210 L 68.082 169.875 66.858 174.409 M174.987 205.467 C 177.133 209.349,177.204 209.223,171.286 212.044 C 166.282 214.429,165.664 214.580,159.714 214.876 C 152.230 215.247,153.165 215.717,152.308 211.155 C 151.448 206.578,151.225 206.746,158.509 206.479 C 163.680 206.289,164.705 206.063,168.286 204.324 C 173.126 201.974,173.048 201.961,174.987 205.467 M189.619 268.871 C 187.444 272.627,188.271 285.211,190.888 288.200 C 191.670 289.092,193.715 287.984,193.701 286.676 C 193.679 284.516,189.958 268.285,189.619 268.871 M199.597 293.716 C 197.868 295.275,191.453 297.714,189.083 297.714 C 187.943 297.714,187.790 298.300,188.366 300.452 L 188.717 301.761 189.577 300.534 C 191.432 297.884,198.286 295.629,198.286 297.668 C 198.286 298.270,198.421 299.117,198.587 299.548 C 198.788 300.073,197.909 300.745,195.919 301.586 C 193.050 302.798,192.984 302.877,193.941 303.935 C 197.057 307.377,200.537 304.559,202.892 296.686 C 204.032 292.873,202.282 291.295,199.597 293.716 M145.501 324.143 C 145.978 325.793,148.043 332.800,150.091 339.714 C 154.192 353.562,154.493 355.701,152.565 357.263 C 150.684 358.786,149.495 358.530,146.529 355.963 C 143.521 353.360,142.928 353.516,142.456 357.037 C 141.605 363.385,143.039 364.537,147.990 361.481 C 149.725 360.410,152.120 359.351,153.312 359.127 C 155.475 358.721,155.478 358.718,155.152 356.360 C 154.799 353.803,151.429 322.331,151.429 321.593 C 151.429 321.345,149.900 321.143,148.031 321.143 L 144.633 321.143 145.501 324.143 M159.069 322.714 C 159.236 323.579,159.915 329.686,160.577 336.286 C 162.203 352.474,162.302 352.486,164.482 336.755 C 165.519 329.268,166.495 322.693,166.651 322.143 C 166.902 321.257,166.467 321.143,162.850 321.143 L 158.766 321.143 159.069 322.714 M171.196 351.653 C 170.695 352.473,169.886 353.797,169.398 354.597 C 168.033 356.835,166.075 357.511,164.309 356.354 C 162.886 355.421,162.857 355.431,162.857 356.844 C 162.857 358.285,162.859 358.286,168.342 358.286 L 173.826 358.286 173.427 354.714 C 172.946 350.415,172.406 349.674,171.196 351.653 " stroke="none" fill="#f1feec" fill-rule="evenodd"></path><path id="path2" d="M229.513 36.392 C 229.297 36.608,229.142 44.901,229.167 54.821 L 229.213 72.857 230.579 74.429 C 232.425 76.552,242.251 76.821,245.463 74.836 C 253.012 70.170,251.200 52.616,242.714 48.214 C 241.217 47.438,241.143 47.201,241.143 43.212 C 241.143 37.202,239.973 36.000,234.123 36.000 C 231.803 36.000,229.728 36.176,229.513 36.392 M300.951 40.646 C 299.889 54.288,300.801 71.645,302.715 74.214 C 304.210 76.220,314.084 76.921,313.467 74.978 C 312.590 72.214,312.102 56.600,312.631 48.193 L 313.195 39.221 311.778 37.804 C 310.570 36.596,309.694 36.348,305.842 36.125 L 301.323 35.864 300.951 40.646 M85.344 38.714 C 85.111 39.893,84.912 47.945,84.901 56.609 L 84.881 72.361 86.298 74.149 C 87.668 75.879,87.863 75.938,92.286 75.968 L 96.857 76.000 96.833 57.462 C 96.804 35.293,97.209 36.571,90.223 36.571 L 85.766 36.571 85.344 38.714 M124.932 40.601 C 124.724 42.840,124.622 51.058,124.706 58.862 C 124.892 76.342,124.741 75.999,132.242 76.001 L 136.857 76.002 136.571 68.430 C 136.414 64.265,136.441 56.100,136.631 50.286 C 137.073 36.770,137.149 36.929,130.167 36.693 L 125.311 36.529 124.932 40.601 M92.353 41.918 C 92.187 43.535,92.040 45.050,92.026 45.286 C 92.012 45.521,90.843 45.714,89.429 45.714 C 86.889 45.714,86.857 45.690,86.857 43.786 C 86.857 39.167,87.255 38.549,90.085 38.774 L 92.655 38.979 92.353 41.918 M132.092 42.230 L 131.898 45.714 129.420 45.714 C 126.640 45.714,126.443 45.392,126.769 41.364 C 126.957 39.041,129.340 37.806,132.000 38.654 C 132.157 38.705,132.199 40.313,132.092 42.230 M236.571 44.898 C 236.571 50.909,236.653 51.429,237.469 50.612 C 238.957 49.124,241.429 49.496,243.077 51.455 C 248.494 57.892,244.719 72.889,238.293 70.463 C 237.346 70.106,236.571 70.048,236.571 70.335 C 236.571 70.622,235.414 70.857,234.000 70.857 L 231.429 70.857 231.429 54.571 L 231.429 38.286 234.000 38.286 L 236.571 38.286 236.571 44.898 M308.223 41.000 C 307.663 44.626,307.655 63.440,308.211 67.571 L 308.654 70.857 305.842 70.857 L 303.030 70.857 302.661 65.286 C 302.190 58.186,302.190 49.032,302.660 43.000 L 303.027 38.286 305.834 38.286 L 308.641 38.286 308.223 41.000 M104.859 42.459 C 104.386 44.049,104.000 45.919,104.000 46.614 C 104.000 47.884,103.024 48.571,101.220 48.571 C 99.860 48.571,100.897 58.737,102.429 60.420 C 102.979 61.024,103.430 62.270,103.432 63.188 C 103.439 66.826,104.665 69.399,107.970 72.714 C 112.380 77.138,115.588 76.922,120.431 71.878 L 122.290 69.941 119.392 65.828 C 116.959 62.375,116.671 61.714,117.601 61.714 C 119.963 61.714,120.224 51.890,117.935 49.170 C 116.559 47.535,116.489 47.204,117.052 44.987 C 118.065 40.997,116.040 39.379,110.169 39.486 L 105.718 39.567 104.859 42.459 M344.361 42.752 C 343.848 44.580,343.429 46.515,343.429 47.052 C 343.429 47.680,342.817 48.151,341.714 48.371 C 339.782 48.758,339.777 48.787,340.533 55.314 C 340.799 57.608,341.396 59.922,341.860 60.457 C 342.324 60.991,342.862 62.651,343.055 64.145 C 344.269 73.509,351.507 78.181,357.943 73.754 C 361.981 70.975,362.055 70.495,359.113 66.111 C 356.296 61.911,356.219 61.714,357.390 61.714 C 359.649 61.714,359.701 51.515,357.455 49.170 C 355.881 47.527,355.841 47.355,356.516 45.101 C 357.139 43.024,357.100 42.604,356.182 41.517 C 354.514 39.541,354.218 39.447,349.647 39.437 L 345.293 39.429 344.361 42.752 M112.312 43.242 C 110.845 49.085,110.886 49.641,112.794 49.827 C 114.547 49.998,114.571 50.044,114.571 53.143 L 114.571 56.286 112.429 56.098 L 110.286 55.911 110.286 59.688 C 110.286 63.792,111.225 65.020,113.005 63.240 C 113.845 62.400,114.030 62.485,115.246 64.275 C 117.013 66.875,116.956 67.143,114.200 69.139 C 108.973 72.925,105.830 70.171,105.278 61.322 C 105.020 57.179,104.846 56.571,103.919 56.571 C 103.182 56.571,102.857 56.156,102.857 55.214 C 102.857 54.468,102.696 53.054,102.500 52.071 C 102.172 50.430,102.265 50.286,103.661 50.286 C 105.340 50.286,105.317 50.329,106.310 45.286 L 107.013 41.714 109.854 41.714 C 112.649 41.714,112.689 41.739,112.312 43.242 M351.771 43.571 C 350.553 49.645,350.549 49.615,352.648 49.816 C 353.706 49.917,354.507 50.193,354.429 50.429 C 354.350 50.664,354.286 52.135,354.286 53.697 L 354.286 56.537 352.143 56.411 L 350.000 56.286 350.063 59.523 C 350.157 64.327,350.552 65.057,352.213 63.497 L 353.539 62.251 355.036 64.512 L 356.532 66.773 354.541 68.521 C 349.126 73.276,345.479 70.531,344.756 61.160 C 344.464 57.380,344.238 56.587,343.486 56.709 C 342.752 56.828,342.538 56.208,342.400 53.571 C 342.238 50.466,342.301 50.286,343.555 50.286 C 344.738 50.286,344.960 49.873,345.603 46.486 C 346.524 41.630,346.455 41.714,349.534 41.714 L 352.143 41.714 351.771 43.571 M189.173 49.040 C 188.117 52.981,187.801 57.643,188.530 58.522 C 189.047 59.145,189.066 60.157,188.608 62.636 C 187.196 70.271,188.190 72.044,195.143 74.299 C 197.343 75.012,199.464 75.714,199.857 75.859 C 200.370 76.048,200.571 75.292,200.571 73.171 C 200.571 71.548,200.863 69.061,201.220 67.645 C 201.704 65.723,201.704 64.904,201.220 64.420 C 200.333 63.533,200.404 59.023,201.355 55.865 C 202.476 52.140,201.249 50.798,194.726 48.610 L 189.737 46.937 189.173 49.040 M208.285 47.649 C 205.125 49.027,204.828 49.878,206.233 53.549 L 207.476 56.798 206.247 58.460 C 201.492 64.892,208.665 77.184,215.799 74.829 C 217.456 74.282,217.954 74.326,218.802 75.093 C 219.752 75.952,220.003 75.798,222.660 72.720 C 226.422 68.364,226.495 68.207,225.462 66.731 C 224.842 65.847,224.571 64.118,224.571 61.053 C 224.571 50.970,216.295 44.158,208.285 47.649 M17.857 47.850 L 13.143 48.046 13.143 64.495 L 13.143 80.944 14.465 82.186 C 15.601 83.253,16.449 83.429,20.465 83.429 L 25.143 83.429 25.143 79.681 C 25.143 77.279,25.352 76.062,25.725 76.293 C 26.626 76.849,29.980 75.541,31.325 74.110 C 35.655 69.501,35.395 58.301,30.825 52.531 C 27.324 48.111,25.695 47.523,17.857 47.850 M65.726 48.398 C 61.638 50.517,60.016 55.452,62.019 59.674 C 62.854 61.432,62.815 61.702,61.216 65.266 L 59.536 69.010 61.947 71.377 C 68.733 78.037,80.069 76.878,81.475 69.381 C 81.829 67.493,80.207 62.834,78.919 62.038 C 78.492 61.774,78.849 60.815,79.997 59.147 C 82.114 56.070,82.142 56.448,79.571 53.347 C 75.466 48.394,69.704 46.335,65.726 48.398 M258.405 48.382 C 254.340 50.385,252.874 54.389,254.515 59.010 C 255.482 61.733,255.477 61.791,254.032 64.949 C 252.119 69.127,252.136 69.234,255.175 71.909 C 261.186 77.200,269.897 77.192,273.129 71.890 C 274.912 68.966,274.292 64.423,271.832 62.383 C 271.005 61.697,271.080 61.397,272.601 59.297 C 274.765 56.309,274.743 56.109,271.879 52.855 C 267.782 48.201,262.398 46.413,258.405 48.382 M316.571 56.875 C 316.571 72.280,319.372 76.000,330.972 76.000 L 336.857 76.000 336.754 63.079 C 336.620 46.298,337.445 47.429,325.329 47.429 L 316.571 47.429 316.571 56.875 M41.656 49.287 C 31.540 55.990,38.768 78.244,50.243 75.724 C 55.941 74.472,58.915 64.135,55.681 56.821 C 55.134 55.584,54.745 54.096,54.817 53.514 C 55.339 49.306,46.104 46.339,41.656 49.287 M144.735 49.195 C 136.988 54.158,139.107 70.461,148.114 75.190 C 155.789 79.219,162.942 67.894,159.154 57.714 C 158.627 56.300,158.129 54.437,158.048 53.575 C 157.605 48.917,149.390 46.214,144.735 49.195 M163.429 55.959 C 163.429 74.829,164.132 76.000,175.468 76.000 L 183.293 76.000 183.989 73.286 C 188.127 57.152,182.971 48.000,169.743 48.000 L 163.429 48.000 163.429 55.959 M283.082 48.559 C 272.100 52.997,278.095 77.402,289.781 75.835 C 296.599 74.920,300.316 61.099,295.365 55.072 C 295.075 54.719,295.003 53.999,295.205 53.472 C 296.467 50.184,287.776 46.662,283.082 48.559 M369.429 49.063 C 362.365 53.426,361.744 64.474,368.179 71.278 C 373.119 76.502,376.383 77.171,382.478 74.210 C 385.616 72.685,385.629 72.627,383.490 69.518 L 381.837 67.115 383.168 65.568 C 389.648 58.035,377.850 43.861,369.429 49.063 M216.705 50.090 C 219.034 51.263,220.000 53.647,220.000 58.220 C 220.000 60.415,220.257 62.888,220.572 63.715 C 221.065 65.013,220.889 65.525,219.286 67.456 C 217.148 70.032,216.790 70.159,216.270 68.523 C 215.893 67.335,215.887 67.335,214.660 68.457 C 209.439 73.230,203.520 65.686,207.819 59.737 C 208.390 58.947,210.116 57.660,211.655 56.879 C 214.580 55.392,214.232 54.254,211.204 55.405 C 210.344 55.732,209.549 56.000,209.439 56.000 C 209.022 56.000,207.278 50.818,207.589 50.506 C 209.341 48.754,213.661 48.557,216.705 50.090 M26.220 50.647 C 32.861 55.299,30.109 71.451,22.794 70.753 L 20.571 70.541 20.571 74.413 L 20.571 78.286 17.714 78.286 L 14.857 78.286 14.857 64.233 L 14.857 50.181 18.239 50.375 C 20.099 50.482,21.813 50.378,22.048 50.142 C 22.772 49.419,24.820 49.666,26.220 50.647 M48.461 50.083 C 49.279 50.302,49.663 50.737,49.474 51.231 C 49.306 51.668,49.661 52.518,50.262 53.119 C 56.592 59.449,49.402 74.863,42.405 69.962 C 34.411 64.363,39.492 47.681,48.461 50.083 M72.733 50.541 C 76.994 52.457,77.218 53.224,74.561 56.794 C 73.797 57.821,73.684 57.826,72.273 56.902 C 69.179 54.874,68.841 56.247,71.894 58.441 C 77.454 62.435,78.296 65.267,74.924 68.639 C 71.832 71.731,62.286 71.218,62.286 67.960 C 62.286 67.503,63.763 64.201,64.237 63.597 C 64.288 63.533,65.348 63.843,66.593 64.286 C 71.194 65.925,71.741 64.592,67.500 62.075 C 59.128 57.106,63.906 46.572,72.733 50.541 M151.818 50.064 C 152.550 50.260,152.943 50.713,152.772 51.160 C 152.611 51.579,153.071 52.722,153.794 53.700 C 155.575 56.108,155.982 62.387,154.593 66.024 C 151.073 75.241,141.135 70.438,141.809 59.846 C 142.270 52.616,146.374 48.604,151.818 50.064 M170.286 50.571 C 170.286 51.542,171.181 51.721,171.714 50.857 C 172.262 49.971,176.171 50.184,177.590 51.178 C 180.566 53.262,181.244 57.715,179.931 66.548 L 179.290 70.857 176.556 70.857 L 173.823 70.857 174.197 68.429 C 175.023 63.067,174.658 56.322,173.529 56.102 C 170.477 55.510,169.555 60.761,171.214 69.286 C 171.510 70.811,171.444 70.857,168.969 70.857 C 166.653 70.857,166.387 70.713,166.070 69.286 C 165.534 66.870,164.928 51.671,165.326 50.633 C 165.807 49.379,170.286 49.323,170.286 50.571 M194.505 50.637 C 196.455 51.302,197.124 51.796,196.892 52.402 C 196.714 52.864,196.408 54.249,196.211 55.479 C 195.817 57.945,195.675 58.005,192.495 57.052 C 190.171 56.356,189.659 54.682,190.646 51.000 C 191.057 49.466,191.066 49.465,194.505 50.637 M267.441 51.655 L 269.718 53.162 268.212 55.438 C 266.452 58.096,266.659 58.038,264.256 56.553 C 261.095 54.599,261.432 56.351,264.631 58.506 C 270.672 62.573,271.339 67.387,266.229 70.029 C 262.763 71.822,254.188 69.922,255.140 67.572 C 255.363 67.022,255.801 65.864,256.114 65.000 C 256.775 63.175,256.904 63.148,259.626 64.286 C 263.937 66.087,264.062 64.557,259.838 61.702 C 256.030 59.128,255.051 57.228,255.963 54.182 C 257.323 49.645,262.636 48.475,267.441 51.655 M289.016 50.079 C 289.918 50.320,290.223 50.727,290.008 51.404 C 289.829 51.966,290.175 52.811,290.822 53.397 C 293.923 56.203,293.463 65.224,290.034 68.860 C 284.967 74.233,278.107 68.089,279.038 59.010 C 279.708 52.462,283.902 48.709,289.016 50.079 M324.126 56.993 C 324.266 63.396,324.406 64.295,325.286 64.463 C 326.174 64.634,326.286 64.118,326.286 59.836 C 326.286 57.185,326.449 53.824,326.649 52.365 L 327.012 49.714 329.482 49.714 L 331.951 49.714 332.118 60.286 L 332.286 70.858 329.619 70.858 C 328.152 70.857,326.860 70.579,326.747 70.240 C 326.603 69.809,326.078 69.833,325.010 70.320 C 320.457 72.394,318.712 69.148,318.463 58.143 L 318.273 49.714 321.120 49.714 L 323.966 49.714 324.126 56.993 M92.000 58.786 C 92.000 63.461,92.161 68.089,92.357 69.071 L 92.714 70.857 89.786 70.857 L 86.857 70.857 86.857 60.571 L 86.857 50.286 89.429 50.286 L 92.000 50.286 92.000 58.786 M131.849 60.573 L 131.984 70.857 129.506 70.857 L 127.028 70.857 126.657 65.627 C 126.453 62.750,126.286 58.121,126.286 55.341 L 126.286 50.286 129.000 50.287 L 131.714 50.288 131.849 60.573 M377.590 51.178 C 383.140 55.065,380.289 63.404,373.343 63.601 C 372.290 63.631,371.429 63.844,371.429 64.075 C 371.429 64.798,373.668 65.244,375.397 64.864 C 376.851 64.545,377.235 64.766,378.542 66.679 L 380.030 68.857 377.872 69.842 C 371.262 72.860,365.758 68.586,365.727 60.410 C 365.697 52.625,372.310 47.479,377.590 51.178 M20.952 56.381 C 19.669 57.664,20.588 65.143,22.029 65.143 C 24.844 65.143,25.866 59.667,23.549 57.000 C 22.650 55.966,21.615 55.719,20.952 56.381 M237.257 56.686 C 236.216 57.727,236.361 63.955,237.436 64.368 C 239.785 65.269,241.187 58.983,239.102 56.898 C 238.027 55.823,238.111 55.832,237.257 56.686 M372.381 56.381 C 371.549 57.213,372.079 57.781,373.527 57.609 C 375.495 57.376,376.022 56.000,374.143 56.000 C 373.383 56.000,372.590 56.171,372.381 56.381 M44.557 58.037 C 43.401 61.077,44.436 65.870,45.973 64.594 C 47.194 63.581,47.600 60.821,46.858 58.573 C 46.075 56.200,45.322 56.025,44.557 58.037 M147.775 57.475 C 147.226 58.906,147.389 63.629,148.020 64.571 C 149.555 66.866,151.133 60.366,149.694 57.677 C 148.977 56.336,148.242 56.259,147.775 57.475 M285.163 57.677 C 284.322 59.248,284.431 63.018,285.353 64.279 C 286.413 65.729,287.429 63.955,287.429 60.656 C 287.429 56.798,286.375 55.412,285.163 57.677 M212.571 62.286 C 211.627 63.230,211.438 63.717,211.949 63.888 C 212.901 64.205,214.491 62.615,214.173 61.663 C 214.003 61.152,213.516 61.341,212.571 62.286 M195.327 62.942 C 196.480 63.368,196.806 68.829,195.755 70.126 C 195.698 70.195,194.328 69.829,192.708 69.311 L 189.764 68.369 190.073 65.756 C 190.599 61.316,190.729 61.247,195.327 62.942 M165.714 96.050 C 140.209 97.487,89.653 102.392,86.039 103.778 C 85.356 104.040,85.143 104.980,85.143 107.718 L 85.143 111.314 83.130 111.314 C 77.387 111.314,70.332 122.113,70.295 130.961 C 70.288 132.544,70.008 133.154,69.168 133.421 C 68.553 133.616,67.442 134.498,66.699 135.381 C 65.956 136.264,64.375 137.308,63.185 137.700 C 58.198 139.346,56.703 151.158,60.466 159.184 L 62.361 163.224 60.302 170.308 C 50.222 204.996,55.098 247.114,71.210 264.517 C 85.816 280.292,98.943 282.118,118.395 271.081 C 120.908 269.655,123.111 268.634,123.289 268.813 C 123.468 268.992,126.215 280.003,129.393 293.283 C 134.679 315.369,135.276 317.444,136.395 317.605 C 137.902 317.822,138.640 319.471,137.513 320.102 C 136.786 320.508,139.604 331.616,143.739 344.647 C 143.960 345.347,143.547 345.672,142.087 345.946 C 133.100 347.632,132.330 367.778,141.112 371.416 C 143.409 372.367,147.633 371.349,151.207 368.982 L 153.880 367.211 165.083 366.740 C 181.559 366.046,181.513 366.075,180.936 356.635 C 180.274 345.813,177.891 340.847,173.422 340.973 C 172.326 341.004,171.436 340.862,171.445 340.658 C 171.455 340.453,172.177 335.372,173.050 329.366 C 174.764 317.580,175.172 316.547,179.139 313.969 C 180.676 312.970,183.342 305.482,184.010 300.286 C 184.050 299.971,184.543 301.003,185.104 302.578 C 188.645 312.523,191.765 314.139,198.764 309.657 C 206.951 304.414,209.634 290.437,202.867 288.289 C 202.091 288.043,201.596 287.020,201.121 284.687 C 200.756 282.895,198.555 273.002,196.229 262.704 C 193.903 252.405,192.000 242.866,192.000 241.506 L 192.000 239.034 199.286 238.662 C 203.293 238.458,209.963 238.289,214.109 238.288 C 218.255 238.287,221.782 238.067,221.947 237.800 C 222.354 237.141,228.555 199.348,231.384 180.286 C 238.110 134.966,240.427 105.606,237.531 102.401 C 232.317 96.629,202.386 93.983,165.714 96.050 M220.627 104.744 C 223.329 105.195,226.900 106.016,228.564 106.569 L 231.588 107.573 231.262 117.644 C 230.714 134.573,217.993 227.949,215.964 229.936 C 215.708 230.187,148.277 231.900,128.897 232.147 L 118.081 232.286 114.482 215.714 C 101.292 154.973,98.631 141.601,99.621 141.047 C 110.795 134.793,119.687 120.886,118.608 111.349 L 118.236 108.061 120.118 107.739 C 123.021 107.243,147.086 105.272,158.571 104.590 C 164.229 104.254,170.143 103.887,171.714 103.774 C 179.233 103.235,215.948 103.963,220.627 104.744 M111.068 109.857 C 112.784 116.258,108.581 124.457,100.315 130.835 C 98.554 132.193,97.046 133.204,96.962 133.081 C 96.527 132.439,92.640 111.170,92.908 110.901 C 93.164 110.645,106.209 108.897,109.790 108.639 C 110.309 108.601,110.877 109.142,111.068 109.857 M78.913 127.769 C 78.158 129.631,77.766 130.144,77.745 129.297 C 77.704 127.618,79.628 122.865,79.867 124.055 C 79.968 124.557,79.538 126.228,78.913 127.769 M94.593 157.081 C 100.896 187.160,111.797 237.827,112.347 239.599 C 112.633 240.521,113.407 240.621,119.904 240.569 C 123.886 240.537,127.381 240.525,127.671 240.542 C 128.491 240.588,125.629 243.428,123.714 244.468 C 120.999 245.942,109.907 245.712,105.475 244.090 C 96.126 240.669,89.225 232.859,85.924 221.966 C 83.354 213.486,85.526 170.492,88.755 165.914 L 90.571 163.340 90.756 154.412 C 91.014 141.964,90.183 139.378,85.262 137.322 C 83.779 136.703,83.426 136.288,83.746 135.543 C 83.976 135.009,84.959 132.283,85.931 129.487 C 87.648 124.549,87.711 124.458,88.129 126.344 C 88.366 127.412,91.274 141.244,94.593 157.081 M75.579 141.844 C 75.968 142.339,77.751 143.158,79.542 143.665 C 83.668 144.832,83.474 144.378,83.604 153.186 L 83.714 160.661 81.848 162.331 C 75.236 168.246,64.927 158.984,65.612 147.743 C 65.691 146.432,65.867 146.210,66.400 146.743 C 68.475 148.818,72.000 146.451,72.000 142.981 C 72.000 140.591,74.076 139.932,75.579 141.844 M187.024 142.135 L 184.048 142.344 184.390 146.172 C 184.577 148.277,184.803 150.087,184.891 150.192 C 184.979 150.298,188.222 150.095,192.097 149.740 C 201.117 148.915,202.328 148.855,203.714 149.170 C 204.657 149.383,204.822 149.178,204.655 148.000 C 203.842 142.271,200.572 141.183,187.024 142.135 M132.051 145.743 C 127.391 146.963,120.000 150.164,120.000 150.961 C 120.000 151.354,122.656 157.015,123.089 157.545 C 123.142 157.608,124.787 156.897,126.747 155.964 C 131.322 153.784,136.436 152.591,141.240 152.580 C 145.499 152.570,145.111 153.023,146.020 147.000 L 146.386 144.571 141.336 144.603 C 138.271 144.622,134.621 145.070,132.051 145.743 M190.286 157.864 C 190.286 161.049,193.652 161.766,194.865 158.839 C 195.734 156.740,195.583 156.560,192.619 156.162 L 190.286 155.850 190.286 157.864 M134.021 161.549 C 133.340 164.263,137.258 165.877,138.237 163.286 C 138.937 161.432,137.980 160.000,136.042 160.000 C 134.744 160.000,134.330 160.317,134.021 161.549 M156.403 164.382 C 154.901 166.816,154.442 177.866,155.672 181.955 C 157.864 189.238,164.218 192.892,168.828 189.520 C 169.982 188.676,166.481 182.857,164.818 182.857 C 162.491 182.857,161.328 174.846,162.757 168.664 C 163.323 166.212,163.310 166.178,161.490 165.418 C 158.711 164.256,156.730 163.853,156.403 164.382 M71.084 170.890 C 72.590 171.556,75.003 172.075,76.651 172.088 L 79.561 172.111 79.232 174.770 C 77.235 190.883,77.332 219.684,79.403 225.714 C 85.597 243.752,98.119 253.364,115.429 253.368 C 126.433 253.370,130.271 251.357,134.901 243.153 L 136.681 240.000 144.769 239.952 C 149.217 239.926,153.500 239.833,154.286 239.745 C 155.071 239.657,162.250 239.486,170.238 239.364 L 184.762 239.143 184.639 243.429 C 184.370 252.829,181.448 274.531,177.974 292.928 C 175.227 307.468,175.166 307.623,171.998 308.104 C 169.519 308.480,141.030 309.802,140.799 309.552 C 140.737 309.484,138.073 298.500,134.879 285.143 C 131.686 271.786,128.807 259.789,128.483 258.484 L 127.892 256.112 122.719 259.457 C 101.262 273.333,91.218 273.533,78.000 260.349 C 62.321 244.709,57.386 206.065,66.917 173.571 C 67.539 171.450,68.133 169.714,68.237 169.714 C 68.341 169.714,69.622 170.243,71.084 170.890 M168.286 204.507 C 164.655 206.358,163.732 206.574,158.286 206.845 L 152.286 207.143 152.377 209.063 C 152.427 210.120,152.637 211.883,152.843 212.982 L 153.218 214.981 159.323 214.738 C 165.582 214.490,171.589 212.640,175.301 209.818 L 176.601 208.830 174.829 205.558 C 173.854 203.758,172.883 202.327,172.671 202.376 C 172.459 202.426,170.486 203.385,168.286 204.507 M191.905 276.430 C 192.953 281.379,193.937 285.975,194.092 286.643 C 194.399 287.964,191.239 289.652,190.550 288.536 C 187.987 284.390,187.308 267.420,189.704 267.430 C 189.867 267.430,190.857 271.480,191.905 276.430 M202.743 292.686 C 203.738 293.681,203.590 295.527,202.221 299.185 C 199.871 305.466,197.201 306.976,193.644 304.035 L 192.286 302.912 195.286 301.628 C 198.245 300.362,199.494 297.957,197.752 296.880 C 196.875 296.338,192.415 298.333,190.504 300.123 C 188.983 301.548,188.671 301.654,188.362 300.849 C 187.467 298.516,187.931 297.998,191.833 296.974 C 195.785 295.938,200.571 293.513,200.571 292.547 C 200.571 291.779,201.922 291.865,202.743 292.686 M166.857 321.413 C 166.857 321.807,165.957 328.371,164.857 336.000 C 163.757 343.629,162.840 350.671,162.818 351.650 C 162.723 356.059,161.757 350.407,160.584 338.571 C 159.898 331.657,159.202 324.843,159.037 323.429 L 158.736 320.857 162.797 320.777 C 165.711 320.720,166.857 320.900,166.857 321.413 M151.684 323.000 C 152.047 325.192,155.429 356.793,155.429 357.991 C 155.429 358.477,154.437 359.073,153.000 359.449 C 151.664 359.799,149.597 360.719,148.407 361.493 C 143.335 364.794,142.286 364.308,142.286 358.656 C 142.286 353.102,143.131 352.527,146.611 355.714 C 149.007 357.909,151.022 358.260,152.669 356.769 C 154.265 355.325,154.054 354.170,149.143 337.394 C 146.629 328.805,144.571 321.636,144.571 321.461 C 144.571 321.286,146.103 321.143,147.974 321.143 C 151.369 321.143,151.377 321.147,151.684 323.000 M173.351 352.365 C 174.136 358.093,174.143 358.078,170.202 358.490 C 165.369 358.995,162.857 358.950,162.857 358.357 C 162.857 358.082,162.694 356.989,162.495 355.929 L 162.134 354.000 163.405 355.318 C 165.656 357.652,167.867 356.890,170.135 353.000 C 172.454 349.024,172.881 348.939,173.351 352.365 " stroke="none" fill="#3b1628" fill-rule="evenodd"></path></g></svg>